<?xml version="1.0" encoding="utf-8"?>
<!-- Generator: Adobe Illustrator 27.6.1, SVG Export Plug-In . SVG Version: 6.00 Build 0)  -->
<svg version="1.1" id="Camada_1" xmlns="http://www.w3.org/2000/svg" xmlns:xlink="http://www.w3.org/1999/xlink" x="0px" y="0px"
	 viewBox="0 0 777.8 989.2" style="enable-background:new 0 0 777.8 989.2;" xml:space="preserve">
<style type="text/css">
	.st0{fill:#343D91;}
</style>
<path class="st0" d="M595.2,416.1H115.8c-19.2,0-19.2,29.8,0,29.8h479.4C614.3,445.9,614.4,416.1,595.2,416.1z"/>
<path class="st0" d="M595.2,552.1H115.8c-19.2,0-19.2,29.8,0,29.8h479.4C614.3,581.9,614.4,552.1,595.2,552.1z"/>
<path class="st0" d="M595.2,688H115.8c-19.2,0-19.2,29.8,0,29.8h479.4C614.3,717.8,614.4,688,595.2,688z"/>
<path class="st0" d="M595.2,824H115.8c-19.2,0-19.2,29.8,0,29.8h479.4C614.3,853.8,614.4,824,595.2,824z"/>
<path class="st0" d="M166.4,295.1c0-21.1-17.2-38.3-38.3-38.3S89.8,274,89.8,295.1s17.2,38.3,38.3,38.3S166.4,316.2,166.4,295.1z
	 M105.7,295.1c0-12.3,10-22.4,22.4-22.4s22.4,10,22.4,22.4s-10,22.4-22.4,22.4S105.7,307.5,105.7,295.1z"/>
<path class="st0" d="M241.8,333.4c21.1,0,38.3-17.2,38.3-38.3s-17.2-38.3-38.3-38.3s-38.3,17.2-38.3,38.3S220.7,333.4,241.8,333.4z
	 M241.8,272.7c12.3,0,22.4,10,22.4,22.4s-10.1,22.4-22.4,22.4s-22.4-10-22.4-22.4S229.4,272.7,241.8,272.7L241.8,272.7z"/>
<path class="st0" d="M355.5,333.4c21.1,0,38.3-17.2,38.3-38.3s-17.2-38.3-38.3-38.3s-38.3,17.2-38.3,38.3S334.4,333.4,355.5,333.4z
	 M355.5,272.7c12.4,0,22.4,10,22.4,22.4s-10,22.4-22.4,22.4s-22.4-10-22.4-22.4S343.1,272.7,355.5,272.7L355.5,272.7z"/>
<path class="st0" d="M469.2,333.4c21.1,0,38.3-17.2,38.3-38.3s-17.2-38.3-38.3-38.3s-38.3,17.2-38.3,38.3S448.1,333.4,469.2,333.4z
	 M469.2,272.7c12.3,0,22.4,10,22.4,22.4s-10,22.4-22.4,22.4s-22.4-10-22.4-22.4S456.8,272.7,469.2,272.7z"/>
<path class="st0" d="M544.6,295.1c0,21.1,17.2,38.3,38.3,38.3s38.3-17.2,38.3-38.3s-17.2-38.3-38.3-38.3S544.6,274,544.6,295.1
	L544.6,295.1z M582.9,272.7c12.3,0,22.4,10,22.4,22.4s-10,22.4-22.4,22.4s-22.4-10-22.4-22.4S570.5,272.7,582.9,272.7z"/>
<path class="st0" d="M755.3,243.8c-7,0.1-15.8,0.1-25.8-0.6v-90.4h-99.9c18.3-16.5,28.8-40.7,29-62.2c0.3-30.1-17.8-52.6-48.4-60.2
	c-22.4-5.5-42.3-2.4-57.4,9.2c-15.1,11.6-25.3,31.4-29.2,55.9c-0.1-0.2-0.3-0.4-0.4-0.6c-12.2-20.4-8.2-41.3-1.8-66.6
	c3.6-14.3-6-24.9-16.9-27.7c-10.8-2.7-23.7,1.8-27.2,15.8c-8.7,34.3-14.6,78.4,16.7,115.8c6.5,7.7,14.1,14.6,22.6,20.4H0v836.4
	h729.5V289c6.3,0.4,12.8,0.6,19.3,0.6c2.3,0,4.5,0,6.8-0.1c14.7-0.3,22.4-12.4,22.2-23.6C777.6,254.7,769.7,243.8,755.3,243.8
	L755.3,243.8z M705.6,176.7v63.9c-39.7-6-87.8-22.4-117.7-63.9H705.6z M705.6,965.3H23.8V176.6h510.5
	c29.7,60.4,91.9,99.7,171.3,110.1V965.3L705.6,965.3z M755.3,273.6c-96.6,2-174-37.1-206.8-104.2c-2.4-5-4.5-10.7-6.2-17.1l-0.9-3.4
	l-3.2-1.6c-12.3-6.2-23.3-14.9-31.9-25.1C479.7,90.5,484.5,53,492.8,20.5c1-3.8,3.5-4.6,5.6-4.6c0.9,0,1.7,0.2,2.3,0.3
	c1.2,0.3,7,2.1,5.4,8.4c-7.1,27.9-11.7,53.1,3.6,78.7c3.8,6.4,8.8,12.4,14.9,18.1l13,11.9l0.3-17.6c0.5-28.6,9.5-51.6,24.6-63.2
	c11.3-8.7,26.1-10.8,43.9-6.4c31.9,7.9,36.5,31.3,36.3,44.6c-0.3,26.2-19.2,57.6-50.5,64.7c-6.5,1.5-13.5,2-20.8,1.5l-14.3-1
	l6.7,12.6c44.9,84.9,149,92.1,191.8,91.4h0.2c5.4,0,6.1,4.5,6.1,6.5C761.9,267.5,761.7,273.5,755.3,273.6L755.3,273.6z"/>
<path class="st0" d="M607,134.4c26.4-17.4,24.4-36.7,22.4-44.1c-4.3-15.4-20-27.1-37.4-27.8c-18-0.8-33,10.3-40.1,29.6
	c-4.5,12.2-4.9,26.3-1.3,42l1,4.3l4.2,1.4c7.1,2.3,14.1,3.5,20.9,3.5C587.7,143.2,598,140.3,607,134.4L607,134.4z M565.1,125.9
	c-2-10.8-1.4-20.1,1.6-28.3c4.8-12.9,13.4-19.8,24.5-19.3c10.3,0.4,20.3,7.6,22.7,16.2c2.4,8.8-3.2,18.3-15.8,26.6
	C586.8,128.6,574.5,128.2,565.1,125.9L565.1,125.9z"/>
</svg>
